<svg width="26" height="25" viewBox="0 0 26 25" fill="none" xmlns="http://www.w3.org/2000/svg">
<path d="M24 5.5H18.475C18.3447 4.13821 17.7116 2.87385 16.6993 1.95373C15.6869 1.03362 14.368 0.523804 13 0.523804C11.632 0.523804 10.3131 1.03362 9.30074 1.95373C8.2884 2.87385 7.65529 4.13821 7.525 5.5H2C1.60218 5.5 1.22064 5.65803 0.93934 5.93934C0.658035 6.22064 0.5 6.60217 0.5 7V23C0.5 23.3978 0.658035 23.7794 0.93934 24.0607C1.22064 24.342 1.60218 24.5 2 24.5H24C24.3978 24.5 24.7794 24.342 25.0607 24.0607C25.342 23.7794 25.5 23.3978 25.5 23V7C25.5 6.60217 25.342 6.22064 25.0607 5.93934C24.7794 5.65803 24.3978 5.5 24 5.5ZM13 1.5C14.1066 1.50203 15.1739 1.91063 15.999 2.64811C16.824 3.38559 17.3493 4.40054 17.475 5.5H8.525C8.65068 4.40054 9.17598 3.38559 10.001 2.64811C10.8261 1.91063 11.8934 1.50203 13 1.5ZM24.5 23C24.5 23.1326 24.4473 23.2598 24.3536 23.3536C24.2598 23.4473 24.1326 23.5 24 23.5H2C1.86739 23.5 1.74021 23.4473 1.64645 23.3536C1.55268 23.2598 1.5 23.1326 1.5 23V7C1.5 6.86739 1.55268 6.74021 1.64645 6.64644C1.74021 6.55267 1.86739 6.5 2 6.5H7.5V10C7.5 10.1326 7.55268 10.2598 7.64645 10.3536C7.74021 10.4473 7.86739 10.5 8 10.5C8.13261 10.5 8.25979 10.4473 8.35355 10.3536C8.44732 10.2598 8.5 10.1326 8.5 10V6.5H17.5V10C17.5 10.1326 17.5527 10.2598 17.6464 10.3536C17.7402 10.4473 17.8674 10.5 18 10.5C18.1326 10.5 18.2598 10.4473 18.3536 10.3536C18.4473 10.2598 18.5 10.1326 18.5 10V6.5H24C24.1326 6.5 24.2598 6.55267 24.3536 6.64644C24.4473 6.74021 24.5 6.86739 24.5 7V23Z" fill="white"/>
</svg>
