<svg width="28" height="28" viewBox="0 0 28 28" fill="none" xmlns="http://www.w3.org/2000/svg">
<g opacity="1">
<path d="M23.9312 14.3062L16.0563 22.1812C16.0165 22.2222 15.9689 22.2548 15.9163 22.2771C15.8637 22.2994 15.8071 22.3108 15.75 22.3108C15.6929 22.3108 15.6363 22.2994 15.5837 22.2771C15.5311 22.2548 15.4835 22.2222 15.4437 22.1812C15.4027 22.1414 15.3701 22.0938 15.3479 22.0412C15.3256 21.9886 15.3141 21.9321 15.3141 21.875C15.3141 21.8178 15.3256 21.7613 15.3479 21.7087C15.3701 21.6561 15.4027 21.6085 15.4437 21.5687L22.5641 14.4375H4.375C4.25897 14.4375 4.14769 14.3914 4.06564 14.3093C3.98359 14.2273 3.9375 14.116 3.9375 14C3.9375 13.8839 3.98359 13.7726 4.06564 13.6906C4.14769 13.6085 4.25897 13.5625 4.375 13.5625H22.5641L15.4437 6.4312C15.3806 6.34695 15.3499 6.24274 15.3574 6.13769C15.3648 6.03264 15.4099 5.93381 15.4844 5.85934C15.5589 5.78487 15.6577 5.73977 15.7627 5.7323C15.8678 5.72484 15.972 5.75551 16.0563 5.8187L23.9312 13.6937C23.9723 13.7335 24.0049 13.7811 24.0271 13.8337C24.0494 13.8863 24.0609 13.9428 24.0609 14C24.0609 14.0571 24.0494 14.1136 24.0271 14.1662C24.0049 14.2188 23.9723 14.2664 23.9312 14.3062Z" fill="black"/>
</g>
</svg>
