<svg width="28" height="28" viewBox="0 0 28 28" fill="none" xmlns="http://www.w3.org/2000/svg">
<g opacity="1">
<path d="M24.0624 14C24.0624 14.116 24.0163 14.2273 23.9342 14.3093C23.8522 14.3914 23.7409 14.4375 23.6249 14.4375H5.43579L12.5561 21.5687C12.5971 21.6085 12.6297 21.6561 12.652 21.7087C12.6743 21.7613 12.6857 21.8178 12.6857 21.875C12.6857 21.9321 12.6743 21.9886 12.652 22.0412C12.6297 22.0938 12.5971 22.1414 12.5561 22.1812C12.5163 22.2222 12.4687 22.2548 12.4161 22.2771C12.3635 22.2994 12.307 22.3108 12.2499 22.3108C12.1927 22.3108 12.1362 22.2994 12.0836 22.2771C12.031 22.2548 11.9834 22.2222 11.9436 22.1812L4.0686 14.3062C4.02759 14.2664 3.99498 14.2188 3.97271 14.1662C3.95044 14.1136 3.93896 14.0571 3.93896 14C3.93896 13.9428 3.95044 13.8863 3.97271 13.8337C3.99498 13.7811 4.02759 13.7335 4.0686 13.6937L11.9436 5.8187C12.0279 5.75551 12.1321 5.72484 12.2371 5.7323C12.3422 5.73977 12.441 5.78487 12.5155 5.85934C12.5899 5.93381 12.635 6.03264 12.6425 6.13769C12.65 6.24274 12.6193 6.34695 12.5561 6.4312L5.43579 13.5625H23.6249C23.7409 13.5625 23.8522 13.6085 23.9342 13.6906C24.0163 13.7726 24.0624 13.8839 24.0624 14Z" fill="black"/>
</g>
</svg>
